<svg width="248" height="48" viewBox="0 0 248 48" fill="none" xmlns="http://www.w3.org/2000/svg">
<g clip-path="url(#clip0_30_253)">
<path d="M60.001 16.5003H63.001V28.5003H72.001V31.5003H60.001V16.5003Z" fill="#1A1A1A"/>
<path d="M87.502 18.0004V30.0004H84.502V18.0004H87.502Z" fill="#1A1A1A"/>
<path d="M100.502 31.5003V16.5003H115.502V31.5003H100.502ZM112.502 28.5003V19.5003H103.502V28.5003H112.502Z" fill="#1A1A1A"/>
<path d="M78.5015 16.5003V19.5003H93.5015V16.5003H78.5015ZM78.5015 28.5003V31.5003H93.5015V28.5003H78.5015Z" fill="#1A1A1A"/>
<path d="M122.502 31.5003V16.5003H125.502L134.502 27.1403V16.5003H137.502V31.5003H134.502L125.502 21.1853V31.5003H122.502Z" fill="#1A1A1A"/>
<path d="M144.503 16.5003H159.503V19.5003H147.503V28.5003H159.503V31.5003H144.503V16.5003ZM156.503 25.5003H152.003V22.5003H156.503V25.5003ZM156.503 28.5003V22.5003H159.503V28.5003H156.503Z" fill="#1A1A1A"/>
<path d="M166.503 31.5003V16.5003H181.503V25.5003H169.503V31.5003H166.503ZM169.503 19.5003V22.5003H178.503V19.5003H169.503ZM177.003 25.5003L182.503 31.5003H178.503L173.003 25.5003H177.003Z" fill="#1A1A1A"/>
<path d="M188.504 31.5003V16.5003H203.504V31.5003H188.504ZM200.504 28.5003V19.5003H191.504V28.5003H200.504Z" fill="#1A1A1A"/>
<path d="M213.504 16.5003V28.5003H222.504V16.5003H225.504V31.5003H210.504V16.5003H213.504Z" fill="#1A1A1A"/>
<path d="M233.005 31.5003V16.5003H248.005V25.5003H236.005V31.5003H233.005ZM236.005 19.5003V22.5003H245.005V19.5003H236.005Z" fill="#1A1A1A"/>
<path d="M40.5 13.5L42 12V9L39 6H33L27 0H21L15 6H9L6 9V12L7.5 13.5L0 21V30L18 48H30L48 30V21L40.5 13.5ZM29.5 39L26.5 42H21.5L18.5 39L24 33.5L29.5 39ZM36 24V30L30 36L24 30L18 36L12 30V24L9 21L21 9H27L39 21L36 24Z" fill="#1A1A1A"/>
<path d="M33 18V21H30V27L24 33L18 27V21H15V18H21V26.5H27V18H33Z" fill="#1A1A1A"/>
</g>
<defs>
<clipPath id="clip0_30_253">
<rect width="248" height="48.001" fill="white"/>
</clipPath>
</defs>
</svg>
